<?xml version="1.0" encoding="UTF-8"?>
<svg version="1.1" xmlns="http://www.w3.org/2000/svg" width="225" height="225">
<path d="M0 0 C74.25 0 148.5 0 225 0 C225 74.25 225 148.5 225 225 C150.75 225 76.5 225 0 225 C0 150.75 0 76.5 0 0 Z " fill="#FDFDFD" transform="translate(0,0)"/>
<path d="M0 0 C3.50797775 2.83702417 6.78450187 5.83670151 10 9 C10.7734375 9.76054687 11.546875 10.52109375 12.34375 11.3046875 C27.85971051 27.51142708 34.40988371 48.54784483 34.23242188 70.69360352 C33.76227519 91.54695984 25.84847091 110.40026331 12 126 C11.41992188 126.67417969 10.83984375 127.34835938 10.2421875 128.04296875 C-3.85947026 143.33502619 -24.79474657 152.22584773 -45.3828125 153.38671875 C-70.96965843 154.19860905 -92.17857559 145.98379165 -110.98364258 128.51635742 C-121.30722768 118.57145663 -127.77650693 106.74665773 -132 93 C-132 92.01 -132 91.02 -132 90 C-131.40316406 90.0721875 -130.80632812 90.144375 -130.19140625 90.21875 C-112.75771985 92.0838695 -97.57953442 90.9605307 -81 85 C-81 84.34 -81 83.68 -81 83 C-82.95105144 81.68479901 -82.95105144 81.68479901 -85.4375 80.375 C-97.45107805 73.32318262 -104.90349439 64.26814605 -108.53125 50.6640625 C-110.53227686 39.29155983 -108.90940049 28.51263245 -102.45703125 18.8828125 C-94.89685732 9.11336523 -86.40507717 4.40565012 -74.125 2.5703125 C-65.54538003 2.14631965 -57.64568582 5.03788027 -51 10.4375 C-50.01 11.7059375 -50.01 11.7059375 -49 13 C-48.236875 13.825 -47.47375 14.65 -46.6875 15.5 C-44.13704372 20.78983525 -44.3130014 26.21643036 -45 32 C-47 34 -47 34 -50 34.25 C-53 34 -53 34 -55 32 C-55.01953125 30.01171875 -55.01953125 30.01171875 -54.8125 27.6875 C-54.72794311 23.93075832 -54.8233421 23.23722632 -57.1875 20.0625 C-62.65193829 16.05524526 -67.32676513 15.25721944 -74 16 C-77.74240215 17.2710045 -79.62527883 18.61541775 -82.375 21.4375 C-85.23942814 27.71720784 -84.96054784 34.80009451 -82.9375 41.375 C-81.07731473 45.69135223 -77.73735545 48.29681688 -74 51 C-73.70996094 49.67935547 -73.70996094 49.67935547 -73.4140625 48.33203125 C-73.15367188 47.17058594 -72.89328125 46.00914063 -72.625 44.8125 C-72.36976562 43.66394531 -72.11453125 42.51539063 -71.8515625 41.33203125 C-71.10527548 38.41192652 -70.19568212 35.76046611 -69 33 C-68.34 33 -67.68 33 -67 33 C-66.89042969 33.66386719 -66.78085938 34.32773437 -66.66796875 35.01171875 C-65.77839831 39.96583056 -64.89625691 43.78726268 -62 48 C-62 48.66 -62 49.32 -62 50 C-61.34 49.29875 -60.68 48.5975 -60 47.875 C-53.89507047 41.85581387 -48.63284392 38.15903923 -40 37 C-39.87367187 36.37609375 -39.74734375 35.7521875 -39.6171875 35.109375 C-39 33 -39 33 -37.125 31.25 C-31.55820622 29.02328249 -26.01329681 29.01597709 -20.30859375 30.87890625 C-11.27503209 35.0577905 -5.81257005 41.46156927 -1 50 C-0.21625 49.814375 0.5675 49.62875 1.375 49.4375 C4 49 4 49 6 50 C5.979375 50.969375 5.95875 51.93875 5.9375 52.9375 C5.64381501 55.87465895 5.64381501 55.87465895 7 57 C7.04080783 58.99958364 7.04254356 61.00045254 7 63 C5.02 63.99 5.02 63.99 3 65 C3.27714844 65.57105469 3.55429688 66.14210938 3.83984375 66.73046875 C6.99736794 73.79837876 7.75871045 80.30286333 8 88 C7.34 88 6.68 88 6 88 C5.91363281 87.17757812 5.82726562 86.35515625 5.73828125 85.5078125 C4.46722974 75.40936655 2.01372435 66.71420148 -6 60 C-8.77100394 58.61449803 -10.9334706 58.8122533 -14 59 C-14.99 59.66 -15.98 60.32 -17 61 C-17.29071481 64.41589896 -17.08719244 66.73842267 -16 70 C-17.42892578 69.94779297 -17.42892578 69.94779297 -18.88671875 69.89453125 C-20.14097656 69.86746094 -21.39523438 69.84039062 -22.6875 69.8125 C-23.92886719 69.77769531 -25.17023438 69.74289063 -26.44921875 69.70703125 C-30.18564321 70.0153171 -32.00629483 70.81911727 -35 73 C-34.5359375 71.948125 -34.5359375 71.948125 -34.0625 70.875 C-32.96697322 67.91063343 -32.43577008 65.12301892 -32 62 C-32.99 62.66 -33.98 63.32 -35 64 C-35.99 64 -36.98 64 -38 64 C-38.26554687 63.43410156 -38.53109375 62.86820312 -38.8046875 62.28515625 C-39.15789062 61.55167969 -39.51109375 60.81820312 -39.875 60.0625 C-40.22304687 59.33160156 -40.57109375 58.60070312 -40.9296875 57.84765625 C-41.8684977 55.83667541 -41.8684977 55.83667541 -44 55 C-43.484375 56.175625 -42.96875 57.35125 -42.4375 58.5625 C-40.8053564 62.84115682 -40.98716519 65.58035721 -42 70 C-40.02 69.01 -38.04 68.02 -36 67 C-36.4060755 70.45164179 -37.10419609 72.15016495 -39.125 75.0625 C-41.2633854 77.73225542 -41.2633854 77.73225542 -40.75 80.1875 C-40.5025 80.785625 -40.255 81.38375 -40 82 C-40 82.99 -40 83.98 -40 85 C-45.32972673 87.39691549 -50.2065517 87.58119651 -56 88 C-51.71 88 -47.42 88 -43 88 C-42.443125 89.60875 -42.443125 89.60875 -41.875 91.25 C-40.12153538 95.2977174 -37.99086007 97.00456997 -34 99 C-30.21011036 99.7841151 -26.87153552 100 -23 100 C-20.99598989 100.30830925 -18.99488234 100.63729412 -17 101 C-16.505 99.515 -16.505 99.515 -16 98 C-14.35 97.67 -12.7 97.34 -11 97 C-11 95.68 -11 94.36 -11 93 C-8.50638429 94.20381448 -6.31856917 95.45428722 -4 97 C-2.34450469 97.38499891 -0.6777567 97.72793135 1 98 C0.67 98.66 0.34 99.32 0 100 C-2.76276177 99.47731534 -5.3260876 98.89130413 -8 98 C-8.66 98.66 -9.32 99.32 -10 100 C-12.06043854 100.56883273 -14.12186341 100.94855684 -16.22265625 101.33984375 C-16.80917969 101.55769531 -17.39570313 101.77554688 -18 102 C-18.495 103.485 -18.495 103.485 -19 105 C-22.3 105 -25.6 105 -29 105 C-29.33 104.01 -29.66 103.02 -30 102 C-34.61507774 100.95785309 -34.61507774 100.95785309 -39 102 C-42.28149677 102.37863424 -44.86382007 102.66339046 -47.79296875 100.953125 C-49.4375 99.625 -49.4375 99.625 -52 97 C-52 96.34 -52 95.68 -52 95 C-54.52588702 97.36292656 -55.88820837 98.66462511 -57 102 C-55.91900024 102.20363159 -55.91900024 102.20363159 -54.81616211 102.41137695 C-51.52164495 103.03682437 -48.22961789 103.67454934 -44.9375 104.3125 C-43.80376953 104.52583984 -42.67003906 104.73917969 -41.50195312 104.95898438 C-33.69924138 106.48312924 -26.85701831 107.9130021 -20.75 113.3125 C-20.10546875 113.86550781 -19.4609375 114.41851562 -18.796875 114.98828125 C-14.39458975 119.91692669 -13.62169616 124.25782579 -13.75 130.75 C-13.76546875 132.06484375 -13.7809375 133.3796875 -13.796875 134.734375 C-14 138 -14 138 -15 140 C3.69779797 130.3468469 18.43782632 116.96838796 25.15625 96.47265625 C26.97945513 90.37143053 28.73181748 84.38050919 29 78 C29.0515625 76.90300781 29.103125 75.80601563 29.15625 74.67578125 C29.69033217 53.02320014 22.28796626 32.17719845 7.39550781 16.30200195 C-6.87161558 1.72420015 -26.83091232 -7.81946242 -47.4206543 -8.44140625 C-70.39250686 -8.3969141 -89.68929835 -0.08726738 -106 16 C-119.71911518 29.93687891 -126.28531551 47.73352936 -126.17578125 67.12109375 C-126.15902344 68.27738281 -126.14226562 69.43367188 -126.125 70.625 C-126.11597656 71.81996094 -126.10695313 73.01492187 -126.09765625 74.24609375 C-126.07431077 77.16427834 -126.04156656 80.08202776 -126 83 C-129.40312738 81.94124926 -132.01353231 80.99097846 -135 79 C-135.40405273 76.91552734 -135.40405273 76.91552734 -135.43359375 74.3359375 C-135.44519531 73.38662354 -135.45679688 72.43730957 -135.46875 71.45922852 C-135.45328125 69.9325354 -135.45328125 69.9325354 -135.4375 68.375 C-135.42847656 67.33335693 -135.41945312 66.29171387 -135.41015625 65.21850586 C-134.89513282 42.01562749 -124.49144852 21.92809157 -108.18530273 5.69262695 C-102.66823418 0.4282246 -96.75615041 -3.43071299 -90 -7 C-89.10925781 -7.47953125 -88.21851563 -7.9590625 -87.30078125 -8.453125 C-59.37214274 -22.31307714 -24.93755709 -18.2264204 0 0 Z " fill="#1D326D" transform="translate(163,21)"/>
<path d="M0 0 C2.50221458 1.93940644 4.89086511 3.95300145 7.2578125 6.0546875 C7.94359375 6.64636719 8.629375 7.23804687 9.3359375 7.84765625 C23.4615071 20.88878252 32.29011599 41.31100965 33.4609375 60.359375 C33.74479257 81.97966987 28.07061845 102.350914 12.6953125 118.1796875 C6.36709153 124.45619572 -2.69092577 132.56832834 -11.7421875 134.0546875 C-11.68417969 132.9203125 -11.62617188 131.7859375 -11.56640625 130.6171875 C-10.87605883 119.98945364 -10.87605883 119.98945364 -15.14453125 110.625 C-15.67175781 110.10679687 -16.19898438 109.58859375 -16.7421875 109.0546875 C-17.30035156 108.49523437 -17.85851562 107.93578125 -18.43359375 107.359375 C-23.87083252 102.65996613 -29.82375066 101.39038571 -36.7421875 100.0546875 C-38.0874166 99.78604115 -39.43246156 99.51647144 -40.77734375 99.24609375 C-43.4117874 98.71708022 -46.04758772 98.20519421 -48.6875 97.703125 C-51.7421875 97.0546875 -51.7421875 97.0546875 -53.7421875 96.0546875 C-53.12941138 93.09293627 -52.48846228 91.67409967 -50.7421875 89.0546875 C-50.0821875 89.0546875 -49.4221875 89.0546875 -48.7421875 89.0546875 C-47.38831814 90.70471578 -46.05540608 92.3721262 -44.7421875 94.0546875 C-41.30390585 95.77382832 -37.26497185 95.50256525 -33.6171875 94.4296875 C-30.85930661 93.87811132 -29.1920767 94.79663629 -26.7421875 96.0546875 C-26.4121875 96.7146875 -26.0821875 97.3746875 -25.7421875 98.0546875 C-19.16204579 98.78236538 -19.16204579 98.78236538 -13.4921875 96.1796875 C-12.9146875 95.4784375 -12.3371875 94.7771875 -11.7421875 94.0546875 C-8.6171875 92.8671875 -8.6171875 92.8671875 -5.7421875 92.0546875 C-5.0821875 91.7246875 -4.4221875 91.3946875 -3.7421875 91.0546875 C-2.40030932 91.7039834 -1.06739253 92.37200612 0.2578125 93.0546875 C1.2478125 93.0546875 2.2378125 93.0546875 3.2578125 93.0546875 C2.1646875 92.6009375 1.0715625 92.1471875 -0.0546875 91.6796875 C-2.56356515 90.63826659 -4.43935817 89.58990706 -6.7421875 88.0546875 C-7.2371875 90.0346875 -7.2371875 90.0346875 -7.7421875 92.0546875 C-8.5465625 92.1784375 -9.3509375 92.3021875 -10.1796875 92.4296875 C-11.448125 92.7390625 -11.448125 92.7390625 -12.7421875 93.0546875 C-13.0721875 93.7146875 -13.4021875 94.3746875 -13.7421875 95.0546875 C-30.45647321 95.0546875 -30.45647321 95.0546875 -36.7421875 90.0546875 C-39.59320225 87.0136051 -39.7421875 86.4290763 -39.7421875 82.0546875 C-46.1771875 82.5496875 -46.1771875 82.5496875 -52.7421875 83.0546875 C-53.2371875 82.0646875 -53.2371875 82.0646875 -53.7421875 81.0546875 C-52.93394531 81.00570312 -52.12570313 80.95671875 -51.29296875 80.90625 C-49.69001953 80.79410156 -49.69001953 80.79410156 -48.0546875 80.6796875 C-46.47107422 80.57527344 -46.47107422 80.57527344 -44.85546875 80.46875 C-41.83541481 80.06708661 -39.50140696 79.31399731 -36.7421875 78.0546875 C-37.4021875 77.0646875 -38.0621875 76.0746875 -38.7421875 75.0546875 C-38.45209627 70.99341022 -35.7748615 67.46433421 -33.7421875 64.0546875 C-34.0721875 63.7246875 -34.4021875 63.3946875 -34.7421875 63.0546875 C-36.79615476 63.46398736 -36.79615476 63.46398736 -38.7421875 64.0546875 C-38.6803125 63.1059375 -38.6184375 62.1571875 -38.5546875 61.1796875 C-38.52408209 56.21140919 -40.16643207 51.7162973 -41.7421875 47.0546875 C-37.08231559 50.1203927 -35.88733548 52.64126069 -34.7421875 58.0546875 C-32.4321875 57.0646875 -30.1221875 56.0746875 -27.7421875 55.0546875 C-28.20041218 58.52410296 -28.63350433 61.72863799 -29.7421875 65.0546875 C-28.7521875 64.3946875 -27.7621875 63.7346875 -26.7421875 63.0546875 C-23.60546875 62.859375 -23.60546875 62.859375 -20.0546875 62.9296875 C-18.87519531 62.94773437 -17.69570312 62.96578125 -16.48046875 62.984375 C-15.57683594 63.00757812 -14.67320312 63.03078125 -13.7421875 63.0546875 C-14.0721875 62.3946875 -14.4021875 61.7346875 -14.7421875 61.0546875 C-15.0546875 58.1171875 -15.0546875 58.1171875 -14.7421875 55.0546875 C-12.56751041 52.5454447 -11.14077979 52.11534285 -7.8671875 51.6171875 C-3.69461971 52.20134699 -1.93335497 53.26241597 1.2578125 56.0546875 C7.29965207 64.32625357 9.67287277 71.88571079 9.2578125 82.0546875 C10.53114431 81.01507902 10.53114431 81.01507902 10.27734375 78.71875 C9.76758996 71.23594907 8.17842407 64.95548136 5.2578125 58.0546875 C6.9078125 57.7246875 8.5578125 57.3946875 10.2578125 57.0546875 C9.9071875 55.8378125 9.5565625 54.6209375 9.1953125 53.3671875 C8.32324898 49.93381854 8.18078081 47.50118891 9.2578125 44.0546875 C5.11687552 43.84498191 5.11687552 43.84498191 1.2578125 45.0546875 C0.9175 44.41402344 0.5771875 43.77335937 0.2265625 43.11328125 C-4.49161894 34.69333511 -10.14856336 27.81895208 -19.7421875 25.0546875 C-24.78608326 24.53792473 -29.1740221 24.43972068 -33.9296875 26.3046875 C-34.5278125 26.8821875 -35.1259375 27.4596875 -35.7421875 28.0546875 C-35.7421875 29.3746875 -35.7421875 30.6946875 -35.7421875 32.0546875 C-36.37125 32.12945312 -37.0003125 32.20421875 -37.6484375 32.28125 C-44.32924364 33.30751841 -48.85943177 35.34108035 -53.7421875 40.0546875 C-54.26941406 40.77914062 -54.79664062 41.50359375 -55.33984375 42.25 C-55.80261719 42.84554687 -56.26539062 43.44109375 -56.7421875 44.0546875 C-57.4021875 44.0546875 -58.0621875 44.0546875 -58.7421875 44.0546875 C-62.01810702 38.23993035 -64.4764041 33.80948024 -63.7421875 27.0546875 C-64.4021875 27.0546875 -65.0621875 27.0546875 -65.7421875 27.0546875 C-65.87496094 27.72886719 -66.00773437 28.40304688 -66.14453125 29.09765625 C-66.83762083 32.52686418 -67.56945795 35.94677179 -68.3046875 39.3671875 C-68.57410156 40.62144531 -68.84351562 41.87570313 -69.12109375 43.16796875 C-69.32605469 44.12058594 -69.53101562 45.07320312 -69.7421875 46.0546875 C-74.93975077 43.10330735 -78.3450768 39.8489089 -81.0546875 34.4296875 C-82.38186258 27.9144644 -82.97047999 21.55514007 -79.9921875 15.4921875 C-76.6144537 11.83297588 -73.86016741 9.42982907 -68.76171875 8.81640625 C-61.8896386 8.58530975 -57.00559859 10.30118439 -51.7421875 14.7421875 C-50.37172989 17.91137072 -50.56668971 20.71371584 -50.734375 24.12890625 C-50.73695312 24.76441406 -50.73953125 25.39992187 -50.7421875 26.0546875 C-49.62382526 27.39873525 -49.62382526 27.39873525 -46.7421875 27.1796875 C-43.86054974 27.39873525 -43.86054974 27.39873525 -42.7421875 26.0546875 C-41.80409319 17.31285711 -41.80409319 17.31285711 -44.7421875 9.3671875 C-45.4021875 8.6040625 -46.0621875 7.8409375 -46.7421875 7.0546875 C-46.7421875 6.3946875 -46.7421875 5.7346875 -46.7421875 5.0546875 C-60.53172462 -1.92157951 -69.85474805 -3.78301043 -84.7421875 1.0546875 C-63.39929333 -22.51034819 -23.06886681 -16.36509355 0 0 Z " fill="#F59A1A" transform="translate(159.7421875,26.9453125)"/>
<path d="M0 0 C3.50797775 2.83702417 6.78450187 5.83670151 10 9 C10.7734375 9.76054687 11.546875 10.52109375 12.34375 11.3046875 C27.85971051 27.51142708 34.40988371 48.54784483 34.23242188 70.69360352 C33.76227519 91.54695984 25.84847091 110.40026331 12 126 C11.41992188 126.67417969 10.83984375 127.34835938 10.2421875 128.04296875 C-3.85947026 143.33502619 -24.79474657 152.22584773 -45.3828125 153.38671875 C-70.96965843 154.19860905 -92.17857559 145.98379165 -110.98364258 128.51635742 C-121.30722768 118.57145663 -127.77650693 106.74665773 -132 93 C-132 92.01 -132 91.02 -132 90 C-131.40316406 90.0721875 -130.80632812 90.144375 -130.19140625 90.21875 C-113.81574848 91.97067773 -99.00282435 91.43667008 -83.43359375 85.70703125 C-81 85 -81 85 -79 86 C-79 86.99 -79 87.98 -79 89 C-92.81136132 95.38252303 -105.75585208 98.85748332 -121 98 C-116.89715817 106.89803822 -112.60735384 114.64965055 -106 122 C-105.48179688 122.61101562 -104.96359375 123.22203125 -104.4296875 123.8515625 C-91.84687196 137.69898262 -71.74702544 145.37602278 -53.48828125 147.38671875 C-49.15272518 147.54136958 -45.9657697 147.44264445 -42 145.625 C-39.50843813 142.35482504 -38.32927017 139.04558307 -37.08984375 135.14453125 C-36 133 -36 133 -33.87890625 132.19921875 C-33.25886719 132.13347656 -32.63882813 132.06773437 -32 132 C-31.97294271 133.77074917 -31.95357805 135.54161711 -31.9375 137.3125 C-31.92589844 138.29863281 -31.91429687 139.28476563 -31.90234375 140.30078125 C-32 143 -32 143 -33 146 C-32.38511719 145.7834375 -31.77023438 145.566875 -31.13671875 145.34375 C-29.92435547 144.92609375 -29.92435547 144.92609375 -28.6875 144.5 C-27.48673828 144.08234375 -27.48673828 144.08234375 -26.26171875 143.65625 C-24 143 -24 143 -21 143 C-18.89084664 134.9588528 -16.74883277 126.19655582 -21.0625 118.5625 C-25.13748222 112.20991829 -32.50647503 110.29727364 -39.4375 108.75 C-40.16904297 108.57726562 -40.90058594 108.40453125 -41.65429688 108.2265625 C-43.43390288 107.80783167 -45.21664951 107.40248487 -47 107 C-45 105 -45 105 -43.1875 104.91796875 C-32.45441557 106.24043808 -24.28597224 108.49224918 -17 117 C-14.05951159 121.69817362 -13.64127374 125.248451 -13.75 130.75 C-13.76546875 132.06484375 -13.7809375 133.3796875 -13.796875 134.734375 C-14 138 -14 138 -15 140 C3.69779797 130.3468469 18.43782632 116.96838796 25.15625 96.47265625 C26.97945513 90.37143053 28.73181748 84.38050919 29 78 C29.0515625 76.90300781 29.103125 75.80601563 29.15625 74.67578125 C29.69033217 53.02320014 22.28796626 32.17719845 7.39550781 16.30200195 C-6.87161558 1.72420015 -26.83091232 -7.81946242 -47.4206543 -8.44140625 C-70.39250686 -8.3969141 -89.68929835 -0.08726738 -106 16 C-119.71911518 29.93687891 -126.28531551 47.73352936 -126.17578125 67.12109375 C-126.15902344 68.27738281 -126.14226562 69.43367188 -126.125 70.625 C-126.11597656 71.81996094 -126.10695313 73.01492187 -126.09765625 74.24609375 C-126.07431077 77.16427834 -126.04156656 80.08202776 -126 83 C-129.40312738 81.94124926 -132.01353231 80.99097846 -135 79 C-135.40405273 76.91552734 -135.40405273 76.91552734 -135.43359375 74.3359375 C-135.44519531 73.38662354 -135.45679688 72.43730957 -135.46875 71.45922852 C-135.45328125 69.9325354 -135.45328125 69.9325354 -135.4375 68.375 C-135.42847656 67.33335693 -135.41945312 66.29171387 -135.41015625 65.21850586 C-134.89513282 42.01562749 -124.49144852 21.92809157 -108.18530273 5.69262695 C-102.66823418 0.4282246 -96.75615041 -3.43071299 -90 -7 C-89.10925781 -7.47953125 -88.21851563 -7.9590625 -87.30078125 -8.453125 C-59.37214274 -22.31307714 -24.93755709 -18.2264204 0 0 Z " fill="#1C326E" transform="translate(163,21)"/>
<path d="M0 0 C0.12375 1.11375 0.2475 2.2275 0.375 3.375 C0.6465813 7.03103677 0.6465813 7.03103677 3 9 C5.06874034 9.6425235 5.06874034 9.6425235 7 10 C6.36956522 22.41304348 6.36956522 22.41304348 3 26 C-1.24590966 29.10700684 -4.73369262 30.3314535 -10 29.75 C-11.33761906 29.52405083 -12.67318565 29.28256232 -14 29 C-14 28.34 -14 27.68 -14 27 C-14.99 27 -15.98 27 -17 27 C-18.5 24.5 -18.5 24.5 -20 22 C-20.99 22 -21.98 22 -23 22 C-24.32 22 -25.64 22 -27 22 C-25.5459375 22.86625 -25.5459375 22.86625 -24.0625 23.75 C-20.73087295 26.197726 -20.84605519 26.37404917 -20 30 C-17.61880754 31.40257876 -17.61880754 31.40257876 -15 32 C-14.34 31.67 -13.68 31.34 -13 31 C-12.01 31.99 -11.02 32.98 -10 34 C-9.34 33.34 -8.68 32.68 -8 32 C-7.67 32.66 -7.34 33.32 -7 34 C-5.68 33.34 -4.36 32.68 -3 32 C-2.67 32.66 -2.34 33.32 -2 34 C-1.4225 33.401875 -0.845 32.80375 -0.25 32.1875 C2 30 2 30 4.1875 28.625 C6.71909065 26.35529804 6.57996415 24.29028083 7 21 C7.66 20.34 8.32 19.68 9 19 C9 18.34 9 17.68 9 17 C16.36405892 18.0002703 23.52470416 19.81079337 30.6875 21.75 C31.57783936 21.97768066 32.46817871 22.20536133 33.38549805 22.43994141 C40.61772238 24.45557853 46.45508336 27.58026826 51 33.6875 C53.10423117 40.65776576 52.78839602 48.33924699 50.25390625 55.18359375 C48.19958143 58.15948485 45.55478554 58.79352969 42.15625 59.66015625 C40 60 40 60 37 60 C37.33 55.38 37.66 50.76 38 46 C36.515 46.495 36.515 46.495 35 47 C33.97080792 49.16340247 33.97080792 49.16340247 33.1875 51.75 C31.19494547 56.92027161 29.95204981 59.34711617 25 62 C8.97157652 64.78864421 -10.30218315 56.60708727 -23.3359375 47.94921875 C-27.87939986 44.62489658 -31.9878819 40.94318136 -36 37 C-36.62648438 36.38640625 -37.25296875 35.7728125 -37.8984375 35.140625 C-41.76264895 31.04910699 -44.62919217 26.5347757 -47.4375 21.6875 C-47.79215332 21.07624268 -48.14680664 20.46498535 -48.51220703 19.83520508 C-50.09112026 17.00922465 -51 15.28948354 -51 12 C-50.20980469 11.98582031 -49.41960938 11.97164062 -48.60546875 11.95703125 C-34.55850142 11.3630452 -20.74449999 8.29182644 -8.54296875 1.13671875 C-5.52953834 -0.21029853 -3.2653253 -0.20497662 0 0 Z " fill="#FAFAFB" transform="translate(93,107)"/>
<path d="M0 0 C9.03356166 4.17888425 14.4960237 10.58266302 19.30859375 19.12109375 C20.09234375 18.93546875 20.87609375 18.74984375 21.68359375 18.55859375 C24.30859375 18.12109375 24.30859375 18.12109375 26.30859375 19.12109375 C26.28796875 20.09046875 26.26734375 21.05984375 26.24609375 22.05859375 C25.95240876 24.9957527 25.95240876 24.9957527 27.30859375 26.12109375 C27.34940158 28.12067739 27.35113731 30.12154629 27.30859375 32.12109375 C25.32859375 33.11109375 25.32859375 33.11109375 23.30859375 34.12109375 C23.72431641 34.97767578 23.72431641 34.97767578 24.1484375 35.8515625 C27.30596169 42.91947251 28.0673042 49.42395708 28.30859375 57.12109375 C27.64859375 57.12109375 26.98859375 57.12109375 26.30859375 57.12109375 C26.17904297 55.88746094 26.17904297 55.88746094 26.046875 54.62890625 C24.77582349 44.5304603 22.3223181 35.83529523 14.30859375 29.12109375 C11.53758981 27.73559178 9.37512315 27.93334705 6.30859375 28.12109375 C5.31859375 28.78109375 4.32859375 29.44109375 3.30859375 30.12109375 C3.01787894 33.53699271 3.22140131 35.85951642 4.30859375 39.12109375 C3.35597656 39.08628906 2.40335938 39.05148438 1.421875 39.015625 C0.16761719 38.98855469 -1.08664063 38.96148437 -2.37890625 38.93359375 C-3.62027344 38.89878906 -4.86164063 38.86398438 -6.140625 38.828125 C-9.87704946 39.13641085 -11.69770108 39.94021102 -14.69140625 42.12109375 C-14.38203125 41.41984375 -14.07265625 40.71859375 -13.75390625 39.99609375 C-12.65837947 37.03172718 -12.12717633 34.24411267 -11.69140625 31.12109375 C-12.68140625 31.78109375 -13.67140625 32.44109375 -14.69140625 33.12109375 C-15.68140625 33.12109375 -16.67140625 33.12109375 -17.69140625 33.12109375 C-17.95695312 32.55519531 -18.2225 31.98929688 -18.49609375 31.40625 C-19.02589844 30.30603516 -19.02589844 30.30603516 -19.56640625 29.18359375 C-19.91445312 28.45269531 -20.2625 27.72179687 -20.62109375 26.96875 C-21.55990395 24.95776916 -21.55990395 24.95776916 -23.69140625 24.12109375 C-23.17578125 25.29671875 -22.66015625 26.47234375 -22.12890625 27.68359375 C-20.49676265 31.96225057 -20.67857144 34.70145096 -21.69140625 39.12109375 C-19.71140625 38.13109375 -17.73140625 37.14109375 -15.69140625 36.12109375 C-16.22209686 39.94206614 -17.18842191 42.18280778 -19.69140625 45.12109375 C-20.18640625 44.62609375 -20.18640625 44.62609375 -20.69140625 44.12109375 C-23.23420145 43.62778251 -25.78547315 43.22131338 -28.34375 42.81640625 C-30.69140625 42.12109375 -30.69140625 42.12109375 -32.69140625 39.12109375 C-32.69140625 38.13109375 -32.69140625 37.14109375 -32.69140625 36.12109375 C-29.72140625 35.62609375 -29.72140625 35.62609375 -26.69140625 35.12109375 C-26.69140625 33.80109375 -26.69140625 32.48109375 -26.69140625 31.12109375 C-27.35140625 31.78109375 -28.01140625 32.44109375 -28.69140625 33.12109375 C-32.31640625 32.74609375 -32.31640625 32.74609375 -35.69140625 32.12109375 C-35.69140625 32.78109375 -35.69140625 33.44109375 -35.69140625 34.12109375 C-37.01140625 33.79109375 -38.33140625 33.46109375 -39.69140625 33.12109375 C-40.31640625 30.80859375 -40.31640625 30.80859375 -40.69140625 28.12109375 C-40.03140625 27.13109375 -39.37140625 26.14109375 -38.69140625 25.12109375 C-39.17351562 24.60160156 -39.655625 24.08210938 -40.15234375 23.546875 C-46.42602839 16.62021502 -46.42602839 16.62021502 -47.69140625 12.12109375 C-48.02140625 14.43109375 -48.35140625 16.74109375 -48.69140625 19.12109375 C-49.02140625 19.12109375 -49.35140625 19.12109375 -49.69140625 19.12109375 C-49.69140625 17.14109375 -49.69140625 15.16109375 -49.69140625 13.12109375 C-50.35140625 13.12109375 -51.01140625 13.12109375 -51.69140625 13.12109375 C-51.14034716 9.17183695 -50.30205254 5.77189201 -48.69140625 2.12109375 C-48.03140625 2.12109375 -47.37140625 2.12109375 -46.69140625 2.12109375 C-46.52705078 3.11689453 -46.52705078 3.11689453 -46.359375 4.1328125 C-45.46980456 9.08692431 -44.58766316 12.90835643 -41.69140625 17.12109375 C-41.69140625 17.78109375 -41.69140625 18.44109375 -41.69140625 19.12109375 C-41.03140625 18.41984375 -40.37140625 17.71859375 -39.69140625 16.99609375 C-33.58647672 10.97690762 -28.32425017 7.28013298 -19.69140625 6.12109375 C-19.50191406 5.18523438 -19.50191406 5.18523438 -19.30859375 4.23046875 C-18.69140625 2.12109375 -18.69140625 2.12109375 -16.81640625 0.37109375 C-11.24961247 -1.85562376 -5.70470306 -1.86292916 0 0 Z " fill="#20346C" transform="translate(142.69140625,51.87890625)"/>
<path d="M0 0 C4.65987191 3.0657052 5.85485202 5.58657319 7 11 C9.31 10.01 11.62 9.02 14 8 C13.54177532 11.46941546 13.10868317 14.67395049 12 18 C12.99 17.34 13.98 16.68 15 16 C18.13671875 15.8046875 18.13671875 15.8046875 21.6875 15.875 C22.86699219 15.89304687 24.04648438 15.91109375 25.26171875 15.9296875 C26.61716797 15.96449219 26.61716797 15.96449219 28 16 C27.505 15.01 27.505 15.01 27 14 C26.6875 11.0625 26.6875 11.0625 27 8 C29.17467709 5.4907572 30.60140771 5.06065535 33.875 4.5625 C38.04756779 5.14665949 39.80883253 6.20772847 43 9 C49.04183957 17.27156607 51.41506027 24.83102329 51 35 C52.0828125 35.3403125 52.0828125 35.3403125 53.1875 35.6875 C56.643189 37.30015487 58.63594227 39.01016228 61 42 C60.80952381 46.19047619 60.80952381 46.19047619 59 48 C53.38873664 47.66992568 50.3539332 46.29199828 46 43 C46 43.66 46 44.32 46 45 C41.44262737 44.56179109 38.42346555 44.14958831 35 41 C34.67 42.32 34.34 43.64 34 45 C33.195625 45.12375 32.39125 45.2475 31.5625 45.375 C30.716875 45.58125 29.87125 45.7875 29 46 C28.505 46.99 28.505 46.99 28 48 C11.28571429 48 11.28571429 48 5 43 C2.14898525 39.9589176 2 39.3743888 2 35 C-4.435 35.495 -4.435 35.495 -11 36 C-11.33 35.34 -11.66 34.68 -12 34 C-11.19175781 33.95101562 -10.38351563 33.90203125 -9.55078125 33.8515625 C-8.48214844 33.77679688 -7.41351563 33.70203125 -6.3125 33.625 C-4.72888672 33.52058594 -4.72888672 33.52058594 -3.11328125 33.4140625 C-0.09322731 33.01239911 2.24078054 32.25930981 5 31 C4.34 30.01 3.68 29.02 3 28 C3.29009123 23.93872272 5.967326 20.40964671 8 17 C7.67 16.67 7.34 16.34 7 16 C4.94603274 16.40929986 4.94603274 16.40929986 3 17 C3.0928125 15.576875 3.0928125 15.576875 3.1875 14.125 C3.21810541 9.15672169 1.57575543 4.6616098 0 0 Z " fill="#F1F2F5" transform="translate(118,74)"/>
<path d="M0 0 C2.66195958 3.99293937 2.72919332 7.30263837 2 12 C0 14.5625 0 14.5625 -2 16 C-1.195625 16.61875 -0.39125 17.2375 0.4375 17.875 C3 20 3 20 4 22 C4.12809512 26.65717259 3.63773975 30.09170399 0.9375 33.9375 C-6.03686184 38.83439236 -14.96779262 38.9586901 -23.1875 37.65234375 C-26.83164192 36.74890023 -27.85578437 36.21632344 -30 33 C-30.20739111 30.41009981 -30.30405144 27.93024621 -30.30078125 25.33984375 C-30.30506638 24.59416641 -30.3093515 23.84848907 -30.31376648 23.08021545 C-30.31950385 21.50587987 -30.3200144 19.93151779 -30.31567383 18.35717773 C-30.31250687 15.94274055 -30.33600258 13.52952067 -30.36132812 11.11523438 C-30.36360042 9.58593905 -30.36430494 8.05664042 -30.36328125 6.52734375 C-30.372491 5.80336899 -30.38170074 5.07939423 -30.39118958 4.33348083 C-30.37231445 2.30053711 -30.37231445 2.30053711 -30 -1 C-21.6979093 -6.53472713 -8.14521206 -5.35256792 0 0 Z " fill="#1D346F" transform="translate(72,179)"/>
<path d="M0 0 C4.7247191 0.14255618 4.7247191 0.14255618 7.5 2.1875 C9.94795139 7.08340278 11.55537736 12.20264151 13.125 17.4375 C15.2680791 14.22288134 16.10955544 11.50948097 17.1875 7.8125 C19.02203588 1.54046412 19.02203588 1.54046412 20.125 0.4375 C21.74639437 0.31255384 23.37384122 0.26178376 25 0.25 C25.88429687 0.23582031 26.76859375 0.22164062 27.6796875 0.20703125 C30.125 0.4375 30.125 0.4375 33.125 2.4375 C33.7409668 4.55371094 33.7409668 4.55371094 34.07421875 7.171875 C34.20014404 8.13279053 34.32606934 9.09370605 34.45581055 10.08374023 C34.57351807 11.10798096 34.69122559 12.13222168 34.8125 13.1875 C34.93987549 14.22269775 35.06725098 15.25789551 35.19848633 16.32446289 C36.09840329 24.06881875 36.4898736 31.64001611 36.125 39.4375 C33.35399606 40.82300197 31.1915294 40.6252467 28.125 40.4375 C25.125 38.4375 25.125 38.4375 24.60083008 36.28271484 C24.53275146 35.41340332 24.46467285 34.5440918 24.39453125 33.6484375 C24.31396484 32.70742187 24.23339844 31.76640625 24.15039062 30.796875 C24.08013672 29.81203125 24.00988281 28.8271875 23.9375 27.8125 C23.8147168 26.32363281 23.8147168 26.32363281 23.68945312 24.8046875 C23.48880331 22.34967795 23.30121345 19.89436474 23.125 17.4375 C22.85945313 18.36433594 22.59390625 19.29117188 22.3203125 20.24609375 C21.96710938 21.44363281 21.61390625 22.64117187 21.25 23.875 C20.90195313 25.06996094 20.55390625 26.26492187 20.1953125 27.49609375 C19.125 30.4375 19.125 30.4375 17.125 31.4375 C14.4526379 31.57165472 11.80249512 31.48068541 9.125 31.4375 C8.49541826 29.91855765 7.87159536 28.39722805 7.25 26.875 C6.90195313 26.02808594 6.55390625 25.18117187 6.1953125 24.30859375 C4.99165237 21.07979743 4.07164944 17.75077304 3.125 14.4375 C2.795 22.6875 2.465 30.9375 2.125 39.4375 C-0.88824195 40.94412097 -3.55786377 40.61520373 -6.875 40.4375 C-8.875 38.4375 -8.875 38.4375 -9.140625 35.69921875 C-9.10610591 27.80297753 -8.69845263 19.99203059 -8 12.125 C-7.92168945 11.19969482 -7.84337891 10.27438965 -7.76269531 9.32104492 C-7.67858398 8.45584229 -7.59447266 7.59063965 -7.5078125 6.69921875 C-7.43449707 5.92537842 -7.36118164 5.15153809 -7.28564453 4.35424805 C-6.38243046 0.13835406 -3.76426962 0.09494449 0 0 Z " fill="#1D336F" transform="translate(104.875,176.5625)"/>
<path d="M0 0 C0 2.99489525 -0.50377733 4.59849051 -1.5 7.375 C-5.06787372 19.13703346 -3.27896792 30.98686643 2.47265625 41.7578125 C8.04589096 50.37458672 15.98874803 56.29847723 25 61 C24.67 61.99 24.34 62.98 24 64 C21.62936092 65.03435198 19.39402937 65.86043178 16.9375 66.625 C16.29361328 66.8415625 15.64972656 67.058125 14.98632812 67.28125 C7.36846083 69.74205658 -0.05955286 70.15195044 -8 70.0625 C-8.77472656 70.05798828 -9.54945312 70.05347656 -10.34765625 70.04882812 C-12.23180524 70.03719758 -14.11591365 70.01926906 -16 70 C-14.515 69.505 -14.515 69.505 -13 69 C-13.2165625 68.30777344 -13.433125 67.61554688 -13.65625 66.90234375 C-18.87764065 48.55495718 -16.11111921 29.08264443 -8 12 C-2.92227979 2.92227979 -2.92227979 2.92227979 0 0 Z " fill="#F4931F" transform="translate(58,43)"/>
<path d="M0 0 C1.1446875 0.0309375 2.289375 0.061875 3.46875 0.09375 C4.6134375 0.1040625 5.758125 0.114375 6.9375 0.125 C10.32283144 0.64850486 10.8949137 1.01145246 12.96875 3.59375 C13.90429688 5.77929688 13.90429688 5.77929688 14.6875 8.3125 C15.12642578 9.71242187 15.12642578 9.71242187 15.57421875 11.140625 C15.86941406 12.11515625 16.16460937 13.0896875 16.46875 14.09375 C16.91154297 15.50914062 16.91154297 15.50914062 17.36328125 16.953125 C22.96875 35.02890969 22.96875 35.02890969 22.96875 39.59375 C19.75423731 41.20100635 16.53262464 40.65123185 12.96875 40.59375 C9.96875 34.96875 9.96875 34.96875 9.96875 31.59375 C6.00875 31.92375 2.04875 32.25375 -2.03125 32.59375 C-2.340625 33.728125 -2.65 34.8625 -2.96875 36.03125 C-4.03125 39.59375 -4.03125 39.59375 -5.03125 40.59375 C-10.76736111 40.86689815 -10.76736111 40.86689815 -13.03125 40.59375 C-13.69125 39.93375 -14.35125 39.27375 -15.03125 38.59375 C-14.7722704 31.06810737 -12.58886413 24.4236162 -10.15625 17.34375 C-9.80433594 16.2815625 -9.45242187 15.219375 -9.08984375 14.125 C-4.62242397 0.90542325 -4.62242397 0.90542325 0 0 Z " fill="#1C336F" transform="translate(160.03125,176.40625)"/>
<path d="M0 0 C0.12375 1.11375 0.2475 2.2275 0.375 3.375 C0.6465813 7.03103677 0.6465813 7.03103677 3 9 C5.06874034 9.6425235 5.06874034 9.6425235 7 10 C6.36956522 22.41304348 6.36956522 22.41304348 3 26 C-1.24590966 29.10700684 -4.73369262 30.3314535 -10 29.75 C-11.33761906 29.52405083 -12.67318565 29.28256232 -14 29 C-14 28.34 -14 27.68 -14 27 C-14.99 27 -15.98 27 -17 27 C-18.6875 24.5 -18.6875 24.5 -20 22 C-20.66 22.33 -21.32 22.66 -22 23 C-22 22.01 -22 21.02 -22 20 C-22.66 20 -23.32 20 -24 20 C-24 19.01 -24 18.02 -24 17 C-25.32 16.67 -26.64 16.34 -28 16 C-28.33 17.32 -28.66 18.64 -29 20 C-33.53214258 18.31663276 -37.55341043 16.44658957 -41 13 C-35.97623925 10.94948541 -31.02295971 9.48270799 -25.75 8.1875 C-19.55128877 6.6471017 -14.25404016 4.36401734 -8.68359375 1.171875 C-5.59783123 -0.17561955 -3.3322345 -0.21529856 0 0 Z " fill="#F6F7F9" transform="translate(93,107)"/>
<path d="M0 0 C0.99148595 1.96550078 1.96862529 3.9323183 2.89453125 5.9296875 C5.08461336 10.57079768 7.56653608 14.18504009 11 18 C10.34 18.66 9.68 19.32 9 20 C9.32041397 22.60280568 9.32041397 22.60280568 10 25 C10.66 25 11.32 25 12 25 C12.33 24.34 12.66 23.68 13 23 C14.0725 23.268125 15.145 23.53625 16.25 23.8125 C17.4875 23.874375 18.725 23.93625 20 24 C22.49210521 21.69931981 22.49210521 21.69931981 24 19 C23.125 26.875 23.125 26.875 22 28 C20.00041636 28.04080783 17.99954746 28.04254356 16 28 C16.32386813 30.52985528 16.32386813 30.52985528 18 33 C20.94119871 34.07001562 23.90584243 34.57343918 27 35 C25.71891158 38.95002264 24.56009395 40.84161551 21 43 C12.51880172 44.50385465 4.75644196 42.17096131 -2.296875 37.46875 C-4.23861607 36.02307417 -6.11772516 34.52146927 -8 33 C-8.99 32.34 -9.98 31.68 -11 31 C-10.278125 31.721875 -9.55625 32.44375 -8.8125 33.1875 C-6.20833333 35.79166667 -3.60416667 38.39583333 -1 41 C-6.40921963 40.77921553 -9.46712622 39.60035358 -13.421875 35.859375 C-18.77030726 29.55775679 -19.60338349 23.02835259 -19 15 C-17.35468767 17.13348192 -15.95883318 19.08233364 -14.75 21.5 C-11.97704884 25.4613588 -8.22803275 27.27739478 -3.6875 28.75 C0.53926775 29.1431877 4.75866709 29.07412038 9 29 C8.236875 28.278125 7.47375 27.55625 6.6875 26.8125 C0.98972948 20.84971689 -0.14724323 16.40605043 -0.0625 8.375 C-0.05798828 7.57320313 -0.05347656 6.77140625 -0.04882812 5.9453125 C-0.03703168 3.96350994 -0.01909605 1.98174567 0 0 Z " fill="#F4F4F6" transform="translate(94,60)"/>
<path d="M0 0 C1.258125 -0.04125 2.51625 -0.0825 3.8125 -0.125 C4.52019531 -0.14820313 5.22789063 -0.17140625 5.95703125 -0.1953125 C8 0 8 0 11 2 C11.34057617 4.52197266 11.34057617 4.52197266 11.29296875 7.6640625 C11.28330078 8.78554687 11.27363281 9.90703125 11.26367188 11.0625 C11.23853516 12.238125 11.21339844 13.41375 11.1875 14.625 C11.17396484 15.80835938 11.16042969 16.99171875 11.14648438 18.2109375 C11.11103916 21.14107539 11.06162769 24.07031459 11 27 C9.54207116 27.05399736 8.08357288 27.09279177 6.625 27.125 C5.40683594 27.15980469 5.40683594 27.15980469 4.1640625 27.1953125 C2 27 2 27 0 25 C-0.22705078 22.47802734 -0.22705078 22.47802734 -0.1953125 19.3359375 C-0.18886719 18.21445313 -0.18242188 17.09296875 -0.17578125 15.9375 C-0.15902344 14.761875 -0.14226562 13.58625 -0.125 12.375 C-0.11597656 11.19164062 -0.10695313 10.00828125 -0.09765625 8.7890625 C-0.07402812 5.85917477 -0.04108514 2.9296866 0 0 Z " fill="#1C326F" transform="translate(80,190)"/>
<path d="M0 0 C1.32 0.33 2.64 0.66 4 1 C3.44894091 4.9492568 2.61064629 8.34920174 1 12 C0.34 12 -0.32 12 -1 12 C-1.33 12.99 -1.66 13.98 -2 15 C-2.33 14.67 -2.66 14.34 -3 14 C-3.33 14.99 -3.66 15.98 -4 17 C-4.99 17.33 -5.98 17.66 -7 18 C-7.66 18.99 -8.32 19.98 -9 21 C-9.66 21 -10.32 21 -11 21 C-11.33 20.01 -11.66 19.02 -12 18 C-12.66 18.66 -13.32 19.32 -14 20 C-14.33 19.34 -14.66 18.68 -15 18 C-15.66 18.66 -16.32 19.32 -17 20 C-17.433125 19.34 -17.86625 18.68 -18.3125 18 C-19.1478125 17.01 -19.1478125 17.01 -20 16 C-20.99 16 -21.98 16 -23 16 C-23.33 15.34 -23.66 14.68 -24 14 C-24.66 14 -25.32 14 -26 14 C-26 13.34 -26 12.68 -26 12 C-26.928125 11.566875 -26.928125 11.566875 -27.875 11.125 C-30.41591419 9.77981013 -31.71125151 8.57749699 -33 6 C-31.68 6 -30.36 6 -29 6 C-28.67 5.34 -28.34 4.68 -28 4 C-27.34 4 -26.68 4 -26 4 C-23 8.38461538 -23 8.38461538 -23 11 C-22.01 11 -21.02 11 -20 11 C-20 11.66 -20 12.32 -20 13 C-12.01720424 13.48217574 -12.01720424 13.48217574 -5 10 C-4.34 10 -3.68 10 -3 10 C-2.87625 9.46375 -2.7525 8.9275 -2.625 8.375 C-1.87793984 5.5361714 -0.94696636 2.77776798 0 0 Z " fill="#6D799E" transform="translate(99,123)"/>
<path d="M0 0 C3.625 0.25 3.625 0.25 5.5625 1.3125 C7.2390629 4.36976176 6.99028977 6.8406288 6.625 10.25 C5.5625 12.1875 5.5625 12.1875 3.625 13.25 C-0.0625 13.4375 -0.0625 13.4375 -3.375 13.25 C-3.705 12.59 -4.035 11.93 -4.375 11.25 C-3.715 10.59 -3.055 9.93 -2.375 9.25 C-4.355 10.24 -4.355 10.24 -6.375 11.25 C-7.41934887 7.92707176 -7.5912055 6.68241099 -6 3.5 C-3.66847826 0.27173913 -3.66847826 0.27173913 0 0 Z " fill="#E79633" transform="translate(85.375,174.75)"/>
<path d="M0 0 C0.66 0 1.32 0 2 0 C3.35386936 1.65002828 4.68678142 3.3174387 6 5 C9.43828165 6.71914082 13.47721565 6.44787775 17.125 5.375 C19.88288089 4.82342382 21.5501108 5.74194879 24 7 C24.33 7.66 24.66 8.32 25 9 C27.01669827 10.13350534 27.01669827 10.13350534 29 11 C25.7153263 13.01611006 23.9225726 13.12147886 20.1875 12.3125 C19.23359375 12.11398438 18.2796875 11.91546875 17.296875 11.7109375 C16.20890625 11.47632812 15.1209375 11.24171875 14 11 C12.67246571 10.73916286 11.34430652 10.48149135 10.015625 10.2265625 C-0.68207908 8.15896046 -0.68207908 8.15896046 -3 7 C-2.38722388 4.03824877 -1.74627478 2.61941217 0 0 Z " fill="#E78D23" transform="translate(109,116)"/>
<path d="M0 0 C2.9375 0.125 2.9375 0.125 6 1 C6.64195312 1.98419922 6.64195312 1.98419922 7.296875 2.98828125 C9.71039608 5.83911463 11.65752595 5.6957379 15.3125 6.0625 C20.23007914 6.67170902 23.81552615 7.3697593 28 10 C24.41422404 11.79288798 20.20448207 11.00943183 16.26171875 10.9375 C13.05826271 10.9017482 13.05826271 10.9017482 10.20703125 11.5625 C8 12 8 12 6 11 C5.59270772 8.67843403 5.25561323 6.3431213 5 4 C4.01 4 3.02 4 2 4 C2.66 5.65 3.32 7.3 4 9 C-0.875 8.125 -0.875 8.125 -2 7 C-2.1875 4.5625 -2.1875 4.5625 -2 2 C-1.34 1.34 -0.68 0.68 0 0 Z " fill="#838DAE" transform="translate(129,103)"/>
<path d="M0 0 C4.65987191 3.0657052 5.85485202 5.58657319 7 11 C9.31 10.01 11.62 9.02 14 8 C13.5188509 13.77378925 11.81532819 17.95859836 9 23 C8.01 22.67 7.02 22.34 6 22 C6.99 18.535 6.99 18.535 8 15 C7.34 15.66 6.68 16.32 6 17 C5.01 17 4.02 17 3 17 C3.0928125 15.576875 3.0928125 15.576875 3.1875 14.125 C3.21810541 9.15672169 1.57575543 4.6616098 0 0 Z " fill="#F2F0F1" transform="translate(118,74)"/>
<path d="M0 0 C2.49361571 1.20381448 4.68143083 2.45428722 7 4 C8.65549531 4.38499891 10.3222433 4.72793135 12 5 C11.67 5.66 11.34 6.32 11 7 C8.23723823 6.47731534 5.6739124 5.89130413 3 5 C2.34 5.66 1.68 6.32 1 7 C-1.06043854 7.56883273 -3.12186341 7.94855684 -5.22265625 8.33984375 C-5.80917969 8.55769531 -6.39570313 8.77554688 -7 9 C-7.33 9.99 -7.66 10.98 -8 12 C-11.3 12 -14.6 12 -18 12 C-18 11.01 -18 10.02 -18 9 C-17.34 9 -16.68 9 -16 9 C-15.67 8.01 -15.34 7.02 -15 6 C-10.545 6.99 -10.545 6.99 -6 8 C-5.67 7.01 -5.34 6.02 -5 5 C-3.35 4.67 -1.7 4.34 0 4 C0 2.68 0 1.36 0 0 Z " fill="#1E3571" transform="translate(152,114)"/>
<path d="M0 0 C1.64574566 -0.02688151 3.29161413 -0.04634123 4.9375 -0.0625 C5.85402344 -0.07410156 6.77054688 -0.08570313 7.71484375 -0.09765625 C10 0 10 0 11 1 C11.1875 3.4375 11.1875 3.4375 11 6 C9 8 9 8 6.8359375 8.1953125 C5.61777344 8.16050781 5.61777344 8.16050781 4.375 8.125 C3.55773438 8.10695312 2.74046875 8.08890625 1.8984375 8.0703125 C1.27195313 8.04710937 0.64546875 8.02390625 0 8 C0 5.36 0 2.72 0 0 Z " fill="#F8F9FA" transform="translate(53,200)"/>
<path d="M0 0 C6.0546875 -0.1953125 6.0546875 -0.1953125 8 0 C8.66 0.66 9.32 1.32 10 2 C9.44444444 6.55555556 9.44444444 6.55555556 8 8 C5.32941149 8.14115161 2.67567762 8.04247107 0 8 C0 5.36 0 2.72 0 0 Z " fill="#F6F7F9" transform="translate(53,184)"/>
<path d="M0 0 C1.32 0.33 2.64 0.66 4 1 C3.44894091 4.9492568 2.61064629 8.34920174 1 12 C0.34 12 -0.32 12 -1 12 C-1.33 12.99 -1.66 13.98 -2 15 C-2.33 14.67 -2.66 14.34 -3 14 C-3.33 14.99 -3.66 15.98 -4 17 C-4.33 15.68 -4.66 14.36 -5 13 C-5.99 13.33 -6.98 13.66 -8 14 C-8.33 13.34 -8.66 12.68 -9 12 C-8.030625 11.7525 -7.06125 11.505 -6.0625 11.25 C-2.92337281 10.3868058 -2.92337281 10.3868058 -2.25 8.25 C-2.1675 7.5075 -2.085 6.765 -2 6 C-1.34490497 3.99617991 -0.68025637 1.99541868 0 0 Z " fill="#69759B" transform="translate(99,123)"/>
<path d="M0 0 C0.66 0 1.32 0 2 0 C2.99 4.29 3.98 8.58 5 13 C2.36 13 -0.28 13 -3 13 C-2.45144652 8.428721 -1.58255197 4.32564205 0 0 Z " fill="#E1E4EB" transform="translate(163,187)"/>
<path d="M0 0 C3.5625 0.3125 3.5625 0.3125 5.5 1.5 C6.89101983 3.87291618 6.78167317 5.60936424 6.5625 8.3125 C5.9025 7.9825 5.2425 7.6525 4.5625 7.3125 C0.70188967 6.02562989 -2.37900283 6.17492382 -6.4375 6.3125 C-5.55427706 1.8963853 -4.77389749 0.43399068 0 0 Z " fill="#F39119" transform="translate(85.4375,174.6875)"/>
<path d="M0 0 C5.83738643 0.7192494 11.7778233 1.68909298 17.1875 4.08203125 C18.1775 5.56703125 18.1775 5.56703125 19.1875 7.08203125 C18.5275 7.74203125 17.8675 8.40203125 17.1875 9.08203125 C16.53394531 8.63214844 15.88039062 8.18226563 15.20703125 7.71875 C11.5140361 5.71698419 7.94535275 4.82936651 3.875 3.89453125 C3.13443359 3.71728516 2.39386719 3.54003906 1.63085938 3.35742188 C-0.18180342 2.92472172 -1.99692027 2.50232409 -3.8125 2.08203125 C-1.8125 0.08203125 -1.8125 0.08203125 0 0 Z " fill="#1E3670" transform="translate(119.8125,125.91796875)"/>
<path d="M0 0 C0.99 0 1.98 0 3 0 C3 3.63 3 7.26 3 11 C2.67 10.34 2.34 9.68 2 9 C1.34 9 0.68 9 0 9 C-0.33 10.98 -0.66 12.96 -1 15 C-2.65 15 -4.3 15 -6 15 C-5.34 14.13375 -4.68 13.2675 -4 12.375 C-1.82815827 8.71001708 -1.81634453 7.13224805 -2 3 C-1.34 2.01 -0.68 1.02 0 0 Z " fill="#3B4167" transform="translate(128,153)"/>
<path d="M0 0 C4.59306496 1.4859916 7.43569245 3.85014682 11 7 C9.125 12.875 9.125 12.875 8 14 C1.55017729 14.5560192 -1.63265206 13.57823196 -7 10 C-7 9.34 -7 8.68 -7 8 C-4.0280615 9.12451727 -1.66559313 10.22293791 1 12 C3.62531524 12.16713569 3.62531524 12.16713569 6 12 C6.33 10.35 6.66 8.7 7 7 C6.24203125 6.36771484 6.24203125 6.36771484 5.46875 5.72265625 C4.8190625 5.17480469 4.169375 4.62695312 3.5 4.0625 C2.8503125 3.51722656 2.200625 2.97195312 1.53125 2.41015625 C1.0259375 1.94480469 0.520625 1.47945313 0 1 C0 0.67 0 0.34 0 0 Z " fill="#273468" transform="translate(171,109)"/>
<path d="M0 0 C0.66 0 1.32 0 2 0 C2.13277344 0.68707031 2.26554687 1.37414063 2.40234375 2.08203125 C2.57894531 2.98308594 2.75554687 3.88414063 2.9375 4.8125 C3.19853516 6.15248047 3.19853516 6.15248047 3.46484375 7.51953125 C3.97741153 10.11397171 3.97741153 10.11397171 5 13 C4.34 13.66 3.68 14.32 3 15 C2.34 13.35 1.68 11.7 1 10 C0.67 12.31 0.34 14.62 0 17 C-0.33 17 -0.66 17 -1 17 C-1 15.02 -1 13.04 -1 11 C-1.66 11 -2.32 11 -3 11 C-2.44894091 7.0507432 -1.61064629 3.65079826 0 0 Z " fill="#464461" transform="translate(94,54)"/>
<path d="M0 0 C1.32 0.66 2.64 1.32 4 2 C4 2.66 4 3.32 4 4 C4.66 4.33 5.32 4.66 6 5 C5.34 5 4.68 5 4 5 C4 5.66 4 6.32 4 7 C-0.4571874 6.73781251 -2.51522698 6.42288711 -5.9375 3.4375 C-6.618125 2.633125 -7.29875 1.82875 -8 1 C-6.865625 1.020625 -5.73125 1.04125 -4.5625 1.0625 C-1.18424326 1.41577477 -1.18424326 1.41577477 0 0 Z " fill="#DEE1E9" transform="translate(160,112)"/>
<path d="M0 0 C1.41750563 0.11509661 2.83401169 0.24253658 4.25 0.375 C5.03890625 0.44460937 5.8278125 0.51421875 6.640625 0.5859375 C9.085877 1.01507113 10.84836903 1.78600638 13 3 C12.34 3 11.68 3 11 3 C11 3.66 11 4.32 11 5 C9.02 5.99 9.02 5.99 7 7 C7 5.68 7 4.36 7 3 C6.13375 3.4640625 6.13375 3.4640625 5.25 3.9375 C3.15705816 4.92583364 1.25464725 5.5168613 -1 6 C-1.33 5.01 -1.66 4.02 -2 3 C-1.34 2.01 -0.68 1.02 0 0 Z " fill="#737FA2" transform="translate(70,120)"/>
<path d="M0 0 C1.11346788 2.80033839 1.03510273 3.90143703 0.00390625 6.796875 C-0.47175781 7.77140625 -0.94742188 8.7459375 -1.4375 9.75 C-1.91058594 10.73484375 -2.38367188 11.7196875 -2.87109375 12.734375 C-3.24363281 13.48203125 -3.61617188 14.2296875 -4 15 C-4.99 14.67 -5.98 14.34 -7 14 C-6.54554036 12.58208592 -6.08625056 11.16571954 -5.625 9.75 C-5.24214844 8.56664063 -5.24214844 8.56664063 -4.8515625 7.359375 C-2.67878788 1.33939394 -2.67878788 1.33939394 0 0 Z " fill="#DCDADC" transform="translate(131,82)"/>
<path d="M0 0 C0 0.33 0 0.66 0 1 C-1.2065625 1.13277344 -2.413125 1.26554688 -3.65625 1.40234375 C-5.27083664 1.58069925 -6.88541979 1.75908636 -8.5 1.9375 C-9.68722656 2.06801758 -9.68722656 2.06801758 -10.8984375 2.20117188 C-12.07792969 2.33168945 -12.07792969 2.33168945 -13.28125 2.46484375 C-14.06628906 2.54976074 -14.85132812 2.63467773 -15.66015625 2.72216797 C-17.21323762 2.90658018 -18.76326412 3.11897751 -20.30859375 3.35986328 C-22.19559514 3.64948217 -24.09815079 3.83379858 -26 4 C-26.66 3.34 -27.32 2.68 -28 2 C-18.57667045 0.00111191 -9.57293998 -0.21867122 0 0 Z " fill="#D1CFD4" transform="translate(122,12)"/>
<path d="M0 0 C-0.7115625 0.61875 -0.7115625 0.61875 -1.4375 1.25 C-3.16266518 3.182185 -3.56584875 4.48192275 -4 7 C-7.65316671 5.75023244 -8.78065836 5.32901247 -11 2 C-7.17010894 0.19769832 -4.21878192 -0.19622241 0 0 Z " fill="#8B95B1" transform="translate(68,120)"/>
<path d="M0 0 C2.625 0.375 2.625 0.375 5 1 C3.35 2.65 1.7 4.3 0 6 C1.32 6.66 2.64 7.32 4 8 C2.125 8.625 2.125 8.625 0 9 C-2 7 -2 7 -2.25 4.5 C-2 2 -2 2 0 0 Z " fill="#1F3371" transform="translate(129,103)"/>
<path d="M0 0 C0.66 0.66 1.32 1.32 2 2 C1.0925 2.28875 0.185 2.5775 -0.75 2.875 C-3.32202908 3.76531776 -5.61346766 4.71494413 -8 6 C-8.33 4.35 -8.66 2.7 -9 1 C-5.98675805 -0.50662097 -3.31713623 -0.17770373 0 0 Z " fill="#162E6D" transform="translate(87,180)"/>
<path d="M0 0 C0.33 0 0.66 0 1 0 C0.125 7.875 0.125 7.875 -1 9 C-3.4375 9.25 -3.4375 9.25 -6 9 C-6.66 8.01 -7.32 7.02 -8 6 C-7.05125 5.7525 -6.1025 5.505 -5.125 5.25 C-1.91306809 4.3142923 -1.91306809 4.3142923 -0.625 1.875 C-0.41875 1.25625 -0.2125 0.6375 0 0 Z " fill="#E8EAEF" transform="translate(117,79)"/>
<path d="M0 0 C2.49361571 1.20381448 4.68143083 2.45428722 7 4 C8.65549531 4.38499891 10.3222433 4.72793135 12 5 C11.67 5.66 11.34 6.32 11 7 C10.29875 6.855625 9.5975 6.71125 8.875 6.5625 C5.92443859 5.98521625 2.96729849 5.48304859 0 5 C0 3.35 0 1.7 0 0 Z " fill="#474E74" transform="translate(152,114)"/>
<path d="M0 0 C0.33 0 0.66 0 1 0 C1 3.63 1 7.26 1 11 C1.66 11 2.32 11 3 11 C3 12.98 3 14.96 3 17 C2.01 16.67 1.02 16.34 0 16 C0 10.72 0 5.44 0 0 Z " fill="#07286E" transform="translate(193,86)"/>
<path d="M0 0 C1.10191901 4.40767604 0.58706842 5.8922935 -1 10 C-2.65 10 -4.3 10 -6 10 C-4.02 6.7 -2.04 3.4 0 0 Z " fill="#E48E2A" transform="translate(128,158)"/>
<path d="M0 0 C2.1640625 0.0234375 2.1640625 0.0234375 4.625 0.375 C5.85089844 0.54128906 5.85089844 0.54128906 7.1015625 0.7109375 C7.72804688 0.80632812 8.35453125 0.90171875 9 1 C8.67 1.99 8.34 2.98 8 4 C4.7 3.34 1.4 2.68 -2 2 C-1.34 1.34 -0.68 0.68 0 0 Z " fill="#334679" transform="translate(118,126)"/>
<path d="M0 0 C1.32 0.33 2.64 0.66 4 1 C3.67 2.32 3.34 3.64 3 5 C1.68 5.33 0.36 5.66 -1 6 C-1.33 5.01 -1.66 4.02 -2 3 C-1.34 2.01 -0.68 1.02 0 0 Z " fill="#67749A" transform="translate(70,120)"/>
<path d="M0 0 C0 3.38023517 -0.87455622 5.83468937 -2 9 C-2.66 9 -3.32 9 -4 9 C-4.33 9.66 -4.66 10.32 -5 11 C-5.33 10.34 -5.66 9.68 -6 9 C-4.02 6.03 -2.04 3.06 0 0 Z " fill="#E99129" transform="translate(58,43)"/>
<path d="M0 0 C4.8 3.44615385 4.8 3.44615385 5.8125 6.25 C5.874375 6.8275 5.93625 7.405 6 8 C5.34 8 4.68 8 4 8 C3.67 8.66 3.34 9.32 3 10 C2.01 6.7 1.02 3.4 0 0 Z " fill="#DED9D8" transform="translate(118,74)"/>
<path d="M0 0 C0.66 0 1.32 0 2 0 C2 3.96 2 7.92 2 12 C1.67 12 1.34 12 1 12 C1 10.02 1 8.04 1 6 C0.34 6 -0.32 6 -1 6 C-0.67 4.02 -0.34 2.04 0 0 Z " fill="#334272" transform="translate(92,59)"/>
<path d="M0 0 C0 0.66 0 1.32 0 2 C-4.43076923 4.09230769 -4.43076923 4.09230769 -7.3125 3.625 C-7.869375 3.41875 -8.42625 3.2125 -9 3 C-8 1 -8 1 -6.1875 0.375 C-4 0 -4 0 0 0 Z " fill="#F9F7F5" transform="translate(96,15)"/>
<path d="M0 0 C1.32 0 2.64 0 4 0 C4 1.65 4 3.3 4 5 C3.34 5 2.68 5 2 5 C1.34 5.99 0.68 6.98 0 8 C0 5.36 0 2.72 0 0 Z " fill="#8A93B0" transform="translate(90,136)"/>
<path d="M0 0 C2.31 0 4.62 0 7 0 C6.67 0.66 6.34 1.32 6 2 C3.6859378 2.73075648 1.35171131 3.40138258 -1 4 C-0.67 2.68 -0.34 1.36 0 0 Z " fill="#2D3666" transform="translate(147,119)"/>
</svg>
